<svg xmlns="http://www.w3.org/2000/svg" viewBox="0 0 480 420"><style>.st0{fill:#b067c1}.st1{fill:#e7a6f4}.st2{fill:#fff}</style><switch><g><g id="Layer_2"><circle class="st0" cx="239.4" cy="212" r="143.4"/><path class="st1" d="M239 74a138 138 0 01139 138 138 138 0 01-139 138 138 138 0 01-138-138A138 138 0 01239 74m0-10a148 148 0 100 296 148 148 0 000-296z"/><path class="st2" d="M184 252l11-4c9-4 14-10 16-17l-1-1h-1s-13 15-34 15c-10 0-21-4-32-11a35 35 0 01-15-41c5-14 18-28 38-28a53 53 0 0130 10l1-1s14-33 38-33c11 0 22 8 34 23a1 1 0 001 0s16-7 32-7c20 0 32 11 34 33 2 13-3 24-15 31-8 6-17 8-17 8l-1 1-3 53-99 11-17-42z"/><path class="st1" d="M235 140v2c10 0 22 8 33 22a2 2 0 002 1c1 0 16-7 32-7 20 0 31 11 33 32 1 13-3 23-14 31-9 5-18 7-18 7l-1 2-3 52-98 11-15-40 10-4c9-4 14-10 16-18a2 2 0 00-4-2c0 1-13 15-33 15-10 0-21-4-31-11a34 34 0 01-15-39c5-14 17-28 37-28 9 0 19 3 29 9a2 2 0 001 1l2-1c0-1 14-33 37-33v-2m0 0c-25 0-39 34-39 34-11-7-21-10-30-10-37 0-56 49-24 71 13 8 24 11 33 11 22 0 35-15 35-15-4 17-27 20-27 20l17 44 101-11 3-54s37-7 33-41c-3-26-19-33-35-33-17 0-32 7-32 7-14-17-25-23-35-23z"/><path class="st2" d="M203 302l97-10v8l-94 10z"/><path class="st1" d="M299 293v6l-92 10-2-6 94-10m2-2l-99 10 3 11 96-11v-10z"/><circle class="st2" cx="250.2" cy="243.1" r="6.7"/><circle class="st2" cx="267.3" cy="243.1" r="6.7"/><path d="M249 260c11 14 21 0 21 0" fill="none" stroke="#fff" stroke-width="1.7" stroke-linecap="round" stroke-linejoin="round" stroke-miterlimit="10"/><circle class="st2" cx="267.3" cy="243.1" r="3.4"/><circle class="st2" cx="250.2" cy="243.1" r="3.4"/><g><circle class="st0" cx="238.2" cy="236.5" r="10"/></g><g><circle class="st0" cx="281.3" cy="236.5" r="10"/></g><path d="M237 270s25-17 48 0" fill="#fff" stroke="#b067c1" stroke-width="3" stroke-linecap="round" stroke-linejoin="round" stroke-miterlimit="10"/></g></g></switch></svg>