<svg xmlns="http://www.w3.org/2000/svg" viewBox="0 0 480 420"><style>.st0{fill:#b067c1}.st1{fill:#e7a6f4}.st2{fill:#fff}</style><switch><g><g id="Layer_2"><circle class="st0" cx="240" cy="210" r="143.4"/><path class="st1" d="M240 72a138 138 0 01138 138 138 138 0 01-138 138 138 138 0 01-138-138A138 138 0 01240 72m0-10a148 148 0 100 296 148 148 0 000-296z"/><path class="st2" d="M185 250l11-4c9-4 14-10 15-17v-1h-1-1s-12 15-33 15c-11 0-22-4-32-11a35 35 0 01-15-41c4-14 18-28 37-28a53 53 0 0130 10h1v-1s15-33 38-33c11 0 23 8 34 23a1 1 0 002 0s15-7 31-7c21 0 32 11 35 33 3 32-32 39-33 39l-1 1-3 53-99 11-16-42z"/><path class="st1" d="M235 138v2c11 0 22 8 34 22a2 2 0 002 1s16-7 31-7c20 0 31 11 34 32 1 13-4 23-15 31-8 5-17 7-17 7l-2 2-2 52-98 11-16-40 11-4c8-4 14-10 15-18a2 2 0 00-3-2c0 1-13 15-33 15-11 0-21-4-32-11a34 34 0 01-14-39c4-14 17-28 36-28 10 0 19 3 29 9a2 2 0 002 1l1-1c0-1 15-33 37-33v-2m0 0c-24 0-39 34-39 34-10-7-21-10-30-10-36 0-56 49-23 71 12 8 23 11 33 11 21 0 34-15 34-15-3 17-27 20-27 20l18 44 100-11 3-54s37-7 34-41c-3-26-20-33-36-33s-32 7-32 7c-13-17-25-23-35-23z"/><path class="st2" d="M204 300l96-10 1 8-95 10z"/><path class="st1" d="M300 291v6l-93 10-2-6 95-10m1-2l-99 10 4 11 96-11-1-10z"/><circle class="st2" cx="250.8" cy="241.1" r="6.7"/><circle class="st2" cx="267.8" cy="241.1" r="6.7"/><path d="M250 258c11 14 21 0 21 0" fill="none" stroke="#fff" stroke-width="1.7" stroke-linecap="round" stroke-linejoin="round" stroke-miterlimit="10"/><circle class="st2" cx="267.8" cy="241.1" r="3.4"/><circle class="st2" cx="250.8" cy="241.1" r="3.4"/><g><circle class="st0" cx="238.8" cy="234.5" r="10"/></g><g><circle class="st0" cx="281.9" cy="234.5" r="10"/></g><path d="M246 255s9 17 16 0c0 0 7 18 15 0" fill="#fff" stroke="#b067c1" stroke-width="3" stroke-linecap="round" stroke-linejoin="round" stroke-miterlimit="10"/></g></g></switch></svg>